<svg width="14" height="19" viewBox="0 0 14 19" fill="none" xmlns="http://www.w3.org/2000/svg">
<mask id="mask0_12_1352" style="mask-type:luminance" maskUnits="userSpaceOnUse" x="0" y="0" width="14" height="19">
<rect y="0.25" width="13.5" height="18" fill="white"/>
</mask>
<g mask="url(#mask0_12_1352)">
<path fill-rule="evenodd" clip-rule="evenodd" d="M11.2043 9.69646C11.1973 8.40623 11.7809 7.4324 12.9621 6.71521C12.3012 5.76951 11.3027 5.2492 9.98438 5.14725C8.73633 5.04881 7.37227 5.87498 6.87305 5.87498C6.3457 5.87498 5.13633 5.1824 4.18711 5.1824C2.22539 5.21404 0.140625 6.74685 0.140625 9.86521C0.140625 10.7863 0.309375 11.7379 0.646875 12.7199C1.09688 14.0101 2.72109 17.1742 4.41563 17.1215C5.30156 17.1004 5.92734 16.4922 7.08047 16.4922C8.19844 16.4922 8.77852 17.1215 9.76641 17.1215C11.475 17.0969 12.9445 14.2211 13.3734 12.9273C11.0813 11.848 11.2043 9.76326 11.2043 9.69647L11.2043 9.69646ZM9.21444 3.92383C10.1742 2.78477 10.0863 1.74766 10.0582 1.375C9.21093 1.42422 8.23007 1.95156 7.67108 2.60195C7.05585 3.29805 6.69374 4.15937 6.77108 5.12969C7.68866 5.2 8.52538 4.72891 9.21444 3.92383Z" fill="black"/>
</g>
</svg>
