<svg width="18" height="19" viewBox="0 0 18 19" fill="none" xmlns="http://www.w3.org/2000/svg">
<mask id="mask0_12_1344" style="mask-type:luminance" maskUnits="userSpaceOnUse" x="0" y="0" width="18" height="19">
<rect y="0.25" width="18" height="18" fill="white"/>
</mask>
<g mask="url(#mask0_12_1344)">
<path fill-rule="evenodd" clip-rule="evenodd" d="M9 2.125C5.06498 2.125 1.87501 5.31496 1.875 9.24998C1.87499 13.185 5.06494 16.375 8.99997 16.375C12.935 16.375 16.125 13.1851 16.125 9.25003C16.125 5.31501 12.9351 2.12503 9.00003 2.125H9Z" fill="#039BE5"/>
<path fill-rule="evenodd" clip-rule="evenodd" d="M9.965 11.1389H11.8089L12.0984 9.26578H9.96462V8.24203C9.96462 7.46391 10.2189 6.77391 10.9467 6.77391H12.1164V5.13928C11.9109 5.11153 11.4762 5.05078 10.655 5.05078C8.94012 5.05078 7.93475 5.95641 7.93475 8.01966V9.26578H6.17188V11.1389H7.93475V16.2873C8.28387 16.3398 8.6375 16.3754 9.0005 16.3754C9.32862 16.3754 9.64887 16.3454 9.965 16.3027V11.1389Z" fill="white"/>
</g>
</svg>
