<svg width="18" height="19" viewBox="0 0 18 19" fill="none" xmlns="http://www.w3.org/2000/svg">
<mask id="mask0_12_1336" style="mask-type:luminance" maskUnits="userSpaceOnUse" x="0" y="0" width="18" height="19">
<rect y="0.25" width="18" height="18" fill="white"/>
</mask>
<g mask="url(#mask0_12_1336)">
<path fill-rule="evenodd" clip-rule="evenodd" d="M16.3541 7.78113H15.75V7.75H9V10.75H13.2386C12.6203 12.4964 10.9586 13.75 9 13.75C6.51488 13.75 4.5 11.7351 4.5 9.25C4.5 6.76488 6.51488 4.75 9 4.75C10.1471 4.75 11.1908 5.18275 11.9854 5.88963L14.1067 3.76825C12.7673 2.51987 10.9755 1.75 9 1.75C4.85813 1.75 1.5 5.10813 1.5 9.25C1.5 13.3919 4.85813 16.75 9 16.75C13.1419 16.75 16.5 13.3919 16.5 9.25C16.5 8.74713 16.4482 8.25625 16.3541 7.78113Z" fill="#FFC107"/>
<path fill-rule="evenodd" clip-rule="evenodd" d="M2.36523 5.75912L4.82936 7.56625C5.49611 5.9155 7.11086 4.75 9.00049 4.75C10.1476 4.75 11.1912 5.18275 11.9859 5.88962L14.1072 3.76825C12.7677 2.51987 10.976 1.75 9.00049 1.75C6.11974 1.75 3.62148 3.37637 2.36523 5.75912Z" fill="#FF3D00"/>
<path fill-rule="evenodd" clip-rule="evenodd" d="M9.00012 16.7503C10.9374 16.7503 12.6976 16.0089 14.0285 14.8033L11.7072 12.839C10.9542 13.4094 10.0182 13.7503 9.00012 13.7503C7.04937 13.7503 5.39299 12.5064 4.76899 10.7705L2.32324 12.6549C3.56449 15.0838 6.08524 16.7503 9.00012 16.7503Z" fill="#4CAF50"/>
<path fill-rule="evenodd" clip-rule="evenodd" d="M16.3541 7.78113H15.75V7.75H9V10.75H13.2386C12.9416 11.5889 12.402 12.3123 11.706 12.8391C11.7064 12.8388 11.7068 12.8387 11.7071 12.8384L14.0284 14.8026C13.8641 14.9519 16.5 13 16.5 9.25C16.5 8.74713 16.4482 8.25625 16.3541 7.78113Z" fill="#1976D2"/>
</g>
</svg>
